Coordinates
version=1
nRows=30
nColumns=19
inDegrees=yes

Units are S.I. units (second, meters, Newtons, ...)
If the header above contains a line with 'inDegrees', this indicates whether rotational values are in degrees (yes) or radians (no).

endheader
time	pelvis_tilt	pelvis_list	pelvis_rotation	pelvis_tx	pelvis_ty	pelvis_tz	hip_flexion_r	hip_adduction_r	hip_rotation_r	knee_angle_r	knee_angle_r_beta	ankle_angle_r	hip_flexion_l	hip_adduction_l	hip_rotation_l	knee_angle_l	knee_angle_l_beta	ankle_angle_l
     14.95333333	      1.79864171	     -8.54117762	     -8.74315091	      2.34563348	      0.95859288	      1.04615658	     13.83224004	     15.48337564	      5.47832650	     18.31689991	      0.31969021	      5.66490830	    -16.92542833	    -14.94508201	    -27.14351528	     71.06070102	      1.24024320	     -9.71148254
     14.96000000	      1.46073540	     -9.20039740	     -9.57818489	      2.34322913	      0.95216773	      1.04771400	     14.90882275	     16.37282067	      5.04509186	     21.58925897	      0.37680365	      6.08960673	    -15.50827285	    -15.78742031	    -26.80568707	     74.73100311	      1.30430206	     -8.64855571
     14.96666667	      1.66130422	     -9.98809587	    -10.26511732	      2.34076072	      0.94623098	      1.04879242	     15.34378873	     17.25133217	      4.62317481	     24.85236947	      0.43375567	      6.81865757	    -14.70116135	    -16.71656973	    -26.53954073	     78.20490351	      1.36493306	     -7.59578106
     14.97333333	      1.88807246	    -10.71258994	    -10.93981681	      2.33805582	      0.94043117	      1.04963968	     15.73209888	     18.02922286	      4.28519723	     28.13736682	      0.49108969	      7.76231687	    -13.81164496	    -17.51833389	    -26.14130179	     81.56284124	      1.42354013	     -6.48636252
     14.98000000	      2.10071173	    -11.38339350	    -11.52164443	      2.33527171	      0.93484179	      1.05011613	     16.04404110	     18.71082042	      4.03515148	     31.27853776	      0.54591347	      9.05026238	    -12.77103527	    -18.24298729	    -25.55548850	     84.78593755	      1.47979377	     -5.50135535
     14.98666667	      2.75644402	    -12.17721424	    -11.98234221	      2.33244885	      0.93015480	      1.05016271	     15.65756035	     19.38588753	      3.91642807	     34.05757811	      0.59441687	     10.50241182	    -12.19417670	    -18.97689295	    -24.97086949	     87.74067291	      1.53136363	     -4.56201390
     14.99333333	      2.49326110	    -12.50607836	    -12.35572179	      2.32940734	      0.92509867	      1.04994904	     16.28768670	     19.70635254	      3.75359948	     36.69683798	      0.64048065	     11.97041503	    -10.14146526	    -19.35431053	    -23.75501626	     90.70888020	      1.58316862	     -3.74604367
     15.00000000	      2.63479615	    -12.93058509	    -12.60221120	      2.32638625	      0.92113133	      1.04935055	     16.19863193	     20.00811876	      3.73866414	     38.83169320	      0.67774090	     13.51826416	     -8.49466362	    -19.71985310	    -22.54760879	     93.35984358	      1.62943666	     -3.04554609
     15.00666667	      2.74988531	    -13.27703835	    -12.67066456	      2.32336672	      0.91788838	      1.04837190	     15.94019194	     20.16678652	      3.71044451	     40.51240939	      0.70707493	     15.02898629	     -6.61136255	    -19.97212744	    -21.08457094	     95.78351027	      1.67173762	     -2.53403896
     15.01333333	      3.04855003	    -13.60751748	    -12.66905872	      2.32044253	      0.91560435	      1.04717574	     15.22098681	     20.26877323	      3.88539171	     41.72245610	      0.72819423	     16.48802537	     -4.87392729	    -20.11115263	    -19.61051672	     97.87404646	      1.70822436	     -2.11115808
     15.02000000	      2.87799055	    -13.62236276	    -12.32954333	      2.31759434	      0.91357128	      1.04561543	     14.95275676	     20.00384129	      3.66817899	     42.56384578	      0.74287925	     17.78185366	     -2.21113561	    -19.99060321	    -17.58702218	     99.81074384	      1.74202611	     -1.90590942
     15.02666667	      2.46452652	    -13.48539136	    -12.16144772	      2.31487747	      0.91193580	      1.04420155	     14.74316403	     19.70641907	      3.79099396	     43.10951118	      0.75240291	     19.01922667	      0.67483961	    -19.70101204	    -15.75597620	    101.43091737	      1.77030347	     -1.80826170
     15.03333333	      2.59565081	    -13.41433573	    -11.58773411	      2.31255098	      0.91159322	      1.04240518	     13.71446765	     19.26709725	      3.67413186	     43.14721574	      0.75306098	     20.06083797	      3.02450485	    -19.31114948	    -13.76744944	    102.63426719	      1.79130589	     -1.78467448
     15.04000000	      2.14465717	    -13.07544443	    -11.10584311	      2.31033602	      0.91116862	      1.04082876	     13.24550613	     18.70429856	      3.62365997	     43.03508520	      0.75110393	     20.97537057	      6.05322962	    -18.69720761	    -11.80339737	    103.60002109	      1.80816147	     -1.84048083
     15.04666667	      2.11998405	    -12.74160861	    -10.47452949	      2.30858877	      0.91191158	      1.03920080	     12.07679204	     18.06515661	      3.61375885	     42.49958899	      0.74175776	     21.62829297	      8.46523692	    -17.97219273	    -10.01626223	    104.09332696	      1.81677128	     -1.83327917
     15.05333333	      1.93385324	    -12.28502860	     -9.82294845	      2.30714991	      0.91293461	      1.03774638	     10.99089387	     17.35301378	      3.58478283	     41.80308654	      0.72960150	     22.17233874	     10.96850345	    -17.13970071	     -8.34974042	    104.27370366	      1.81991945	     -1.84578443
     15.06000000	      1.80658351	    -11.78316546	     -9.55265115	      2.30611237	      0.91464158	      1.03688246	      9.61980179	     16.73529594	      4.16299514	     40.89104166	      0.71368331	     22.47173051	     13.00572470	    -16.39851945	     -7.36931150	    104.00129919	      1.81516510	     -1.70024628
     15.06666667	      1.58715778	    -11.16158438	     -8.70839817	      2.30534364	      0.91658939	      1.03561327	      8.39353189	     15.85725582	      3.89754993	     39.82853759	      0.69513912	     22.64991491	     15.34124210	    -15.32543935	     -5.83904647	    103.49958404	      1.80640852	     -1.64238388
     15.07333333	      1.21023991	    -10.47581183	     -8.16892554	      2.30498397	      0.91891809	      1.03481040	      7.20306298	     15.02276780	      3.97822175	     38.64173918	      0.67442558	     22.46822578	     17.50615783	    -14.34819131	     -4.85027921	    102.62884131	      1.79121119	     -1.37348675
     15.08000000	      0.82536124	     -9.76292740	     -7.76328555	      2.30498446	      0.92172551	      1.03430598	      5.92439382	     14.19965990	      4.20720399	     37.32546773	      0.65145231	     22.03349811	     19.42935116	    -13.43151223	     -4.18846966	    101.40273080	      1.76981152	     -0.98966801
     15.08666667	      0.37400286	     -9.01989058	     -7.53046810	      2.30526171	      0.92494462	      1.03411533	      4.64265627	     13.39383966	      4.65042777	     35.89655248	      0.62651303	     21.30451181	     21.18275967	    -12.60834876	     -3.86659511	     99.85375018	      1.74277671	     -0.48202285
     15.09333333	     -0.01526091	     -8.25441604	     -7.21956709	      2.30586806	      0.92863463	      1.03391943	      3.24281377	     12.52010677	      4.92538517	     34.31159297	      0.59885027	     20.26294911	     22.72160215	    -11.76887274	     -3.63150423	     98.00349692	      1.71048370	      0.07980200
     15.10000000	     -0.65442740	     -7.48975150	     -7.14491246	      2.30683642	      0.93242871	      1.03406715	      2.08411965	     11.65400731	      5.22184772	     32.69124472	      0.57056986	     18.96619436	     24.28227793	    -11.13042341	     -3.75324949	     95.87325828	      1.67330402	      0.77247496
     15.10666667	     -0.05078855	     -6.79348545	     -6.66832546	      2.30819410	      0.93800895	      1.03380716	     -0.62498649	     10.71003033	      5.43972759	     30.53589404	      0.53295189	     17.14142089	     24.32907931	    -10.33487327	     -3.81185172	     93.34562276	      1.62918846	      1.48596076
     15.11333333	     -0.10618317	     -6.03815132	     -6.60297169	      2.30976731	      0.94311026	      1.03402743	     -2.55801608	      9.76635211	      5.81378260	     28.51244010	      0.49763596	     15.05833971	     24.86792273	     -9.79033345	     -4.32779815	     90.61584923	      1.58154492	      2.27012355
     15.12000000	     -0.19067177	     -5.25806339	     -6.51958457	      2.31153871	      0.94836834	      1.03423200	     -4.44539618	      8.77189272	      6.03148618	     26.41311435	      0.46099581	     12.66376989	     25.31108042	     -9.23356996	     -4.91642289	     87.64959180	      1.52977396	      3.02047647
     15.12666667	     -0.27039110	     -4.49396473	     -6.39381629	      2.31353893	      0.95370807	      1.03433263	     -6.33669210	      7.77515316	      6.08774523	     24.23290897	      0.42294405	      9.97248852	     25.62711832	     -8.70478826	     -5.57026785	     84.47816799	      1.47442218	      3.74544991
     15.13333333	     -0.32019565	     -3.71064671	     -6.28537337	      2.31570449	      0.95910032	      1.03438789	     -8.21794783	      6.73935792	      6.03717051	     22.05345327	      0.38490537	      7.08595252	     25.77341727	     -8.17785449	     -6.36063840	     81.09294406	      1.41533887	      4.42302082
     15.14000000	     -0.43092583	     -2.92252355	     -6.11317589	      2.31801924	      0.96436990	      1.03430064	     -9.99337517	      5.71539825	      5.79885837	     19.88295127	      0.34702296	      4.00343924	     25.89421781	     -7.60460109	     -7.14393557	     77.51937813	      1.35296838	      5.00228604
     15.14666667	     -0.52528854	     -2.11073047	     -5.93473954	      2.32039413	      0.96950371	      1.03409425	    -11.69333187	      4.67124924	      5.42974787	     17.84274325	      0.31141462	      0.91924344	     25.88488016	     -6.99503902	     -8.02939607	     73.75509644	      1.28726927	      5.48304262
